<svg version="1.1" xmlns="http://www.w3.org/2000/svg" xmlns:xlink="http://www.w3.org/1999/xlink" width="198" height="10" viewBox="0 0 198 10">
<path id="—*—" d="M111.950,6.000 L111.950,5.000 L197.975,5.000 L197.975,6.000 L111.950,6.000 zM98.984,9.063 C96.732,9.063 94.906,7.237 94.906,4.984 C94.906,2.732 96.732,0.906 98.984,0.906 C101.237,0.906 103.062,2.732 103.062,4.984 C103.062,7.237 101.237,9.063 98.984,9.063 zM101.750,5.000 C101.750,3.481 100.519,2.250 99.000,2.250 C97.481,2.250 96.250,3.481 96.250,5.000 C96.250,6.519 97.481,7.750 99.000,7.750 C100.519,7.750 101.750,6.519 101.750,5.000 zM0.050,5.000 L86.075,5.000 L86.075,6.000 L0.050,6.000 L0.050,5.000 z" fill="#DBDBDB" />
</svg>
