<svg version="1.1" xmlns="http://www.w3.org/2000/svg" xmlns:xlink="http://www.w3.org/1999/xlink" width="14" height="13" viewBox="0 0 14 13">
<path id="@" d="M11.486,1.817 C10.320,0.742 8.869,0.205 7.137,0.205 C5.315,0.205 3.763,0.815 2.482,2.039 C1.201,3.263 0.559,4.784 0.559,6.605 C0.559,8.350 1.169,9.851 2.388,11.108 C3.612,12.366 5.255,12.995 7.324,12.995 C8.572,12.995 9.795,12.739 10.995,12.225 C11.387,12.058 11.577,11.609 11.418,11.215 C11.418,11.215 11.418,11.215 11.418,11.215 C11.254,10.808 10.789,10.620 10.385,10.793 C9.341,11.241 8.318,11.466 7.322,11.466 C5.735,11.466 4.506,10.983 3.635,10.015 C2.766,9.050 2.330,7.915 2.330,6.613 C2.330,5.199 2.797,4.019 3.729,3.072 C4.658,2.128 5.803,1.653 7.160,1.653 C8.410,1.653 9.466,2.041 10.328,2.819 C11.189,3.596 11.619,4.575 11.619,5.754 C11.619,6.560 11.421,7.234 11.027,7.769 C10.633,8.306 10.223,8.572 9.798,8.572 C9.568,8.572 9.453,8.450 9.453,8.202 C9.453,8.001 9.469,7.766 9.498,7.495 C9.498,7.495 9.983,3.526 9.983,3.526 L8.313,3.526 C8.313,3.526 8.206,3.915 8.206,3.915 C7.781,3.568 7.314,3.393 6.808,3.393 C6.004,3.393 5.315,3.714 4.744,4.353 C4.170,4.992 3.885,5.817 3.885,6.824 C3.885,7.808 4.139,8.603 4.647,9.206 C5.156,9.811 5.767,10.112 6.482,10.112 C7.121,10.112 7.666,9.843 8.120,9.308 C8.462,9.822 8.966,10.078 9.631,10.078 C10.609,10.078 11.455,9.652 12.167,8.799 C12.879,7.948 13.237,6.921 13.237,5.718 C13.237,4.194 12.655,2.892 11.486,1.817 zM7.640,7.821 C7.345,8.217 6.993,8.418 6.583,8.418 C6.304,8.418 6.080,8.272 5.910,7.980 C5.738,7.688 5.652,7.325 5.652,6.889 C5.652,6.352 5.772,5.919 6.012,5.590 C6.252,5.261 6.549,5.094 6.904,5.094 C7.212,5.094 7.486,5.217 7.726,5.465 C7.966,5.712 8.086,6.041 8.086,6.453 C8.084,6.968 7.935,7.422 7.640,7.821 z" fill="#FFFFFF" />
</svg>
