<svg version="1.1" xmlns="http://www.w3.org/2000/svg" xmlns:xlink="http://www.w3.org/1999/xlink" width="15" height="9" viewBox="0 0 15 9">
<path id="vk" d="M12.896,5.377 C13.393,5.862 13.917,6.319 14.363,6.853 C14.560,7.091 14.747,7.336 14.890,7.611 C15.092,8.003 14.909,8.434 14.557,8.457 C14.557,8.457 12.374,8.456 12.374,8.456 C11.811,8.503 11.361,8.276 10.984,7.891 C10.681,7.583 10.401,7.256 10.111,6.937 C9.991,6.807 9.867,6.685 9.718,6.588 C9.420,6.395 9.161,6.454 8.991,6.765 C8.817,7.081 8.778,7.431 8.761,7.783 C8.737,8.298 8.582,8.433 8.065,8.456 C6.962,8.508 5.914,8.341 4.941,7.785 C4.083,7.294 3.418,6.601 2.839,5.816 C1.711,4.289 0.848,2.610 0.072,0.884 C-0.103,0.496 0.025,0.287 0.454,0.280 C1.166,0.266 1.878,0.267 2.591,0.279 C2.881,0.283 3.073,0.449 3.184,0.722 C3.570,1.670 4.041,2.571 4.633,3.407 C4.791,3.630 4.952,3.852 5.180,4.009 C5.434,4.182 5.626,4.125 5.746,3.843 C5.821,3.664 5.854,3.471 5.871,3.280 C5.928,2.621 5.935,1.963 5.836,1.306 C5.775,0.896 5.545,0.631 5.136,0.553 C4.927,0.514 4.958,0.436 5.059,0.317 C5.235,0.111 5.400,-0.016 5.729,-0.016 C5.729,-0.016 8.196,-0.016 8.196,-0.016 C8.585,0.060 8.671,0.235 8.724,0.626 C8.724,0.626 8.727,3.367 8.727,3.367 C8.722,3.518 8.802,3.967 9.075,4.067 C9.293,4.139 9.437,3.964 9.568,3.826 C10.158,3.199 10.580,2.458 10.957,1.690 C11.124,1.353 11.268,1.002 11.407,0.652 C11.510,0.392 11.672,0.265 11.965,0.270 C11.965,0.270 14.340,0.272 14.340,0.272 C14.410,0.272 14.482,0.273 14.550,0.285 C14.950,0.353 15.060,0.525 14.936,0.916 C14.741,1.529 14.362,2.040 13.992,2.554 C13.596,3.102 13.172,3.631 12.779,4.182 C12.419,4.686 12.447,4.939 12.896,5.377 C12.896,5.377 12.896,5.377 12.896,5.377 z" fill="#FFFFFF" />
</svg>
