<svg version="1.1" xmlns="http://www.w3.org/2000/svg" xmlns:xlink="http://www.w3.org/1999/xlink" width="12" height="18" viewBox="0 0 12 18">
<path id="i" d="M5.985,0.921 C2.688,0.921 0.005,3.609 0.005,6.914 C0.005,7.776 0.181,8.599 0.528,9.360 C2.023,12.639 4.890,16.100 5.733,17.083 C5.796,17.157 5.888,17.199 5.985,17.199 C6.082,17.199 6.174,17.157 6.237,17.083 C7.080,16.101 9.947,12.639 11.442,9.360 C11.789,8.599 11.965,7.776 11.965,6.914 C11.965,3.609 9.282,0.921 5.985,0.921 zM5.985,10.027 C4.272,10.027 2.879,8.630 2.879,6.914 C2.879,5.197 4.272,3.801 5.985,3.801 C7.698,3.801 9.091,5.197 9.091,6.914 C9.091,8.630 7.698,10.027 5.985,10.027 z" fill="#553013" />
</svg>
