<svg version="1.1" xmlns="http://www.w3.org/2000/svg" xmlns:xlink="http://www.w3.org/1999/xlink" width="17" height="17" viewBox="0 0 17 17">
<path id="i" d="M15.717,14.016 C15.717,14.016 12.415,10.714 12.415,10.714 C13.211,9.565 13.609,8.284 13.609,6.872 C13.609,5.954 13.431,5.076 13.074,4.238 C12.718,3.400 12.237,2.679 11.630,2.072 C11.023,1.465 10.301,0.984 9.464,0.628 C8.626,0.271 7.748,0.093 6.830,0.093 C5.912,0.093 5.034,0.271 4.197,0.628 C3.359,0.984 2.637,1.465 2.030,2.072 C1.423,2.679 0.942,3.400 0.586,4.238 C0.230,5.076 0.051,5.954 0.051,6.872 C0.051,7.790 0.230,8.667 0.586,9.505 C0.942,10.343 1.423,11.065 2.030,11.671 C2.637,12.278 3.359,12.760 4.197,13.116 C5.034,13.472 5.912,13.650 6.830,13.650 C8.243,13.650 9.523,13.252 10.672,12.456 C10.672,12.456 13.974,15.749 13.974,15.749 C14.206,15.993 14.494,16.115 14.841,16.115 C15.175,16.115 15.464,15.993 15.707,15.749 C15.952,15.505 16.073,15.216 16.073,14.882 C16.074,14.542 15.955,14.254 15.717,14.016 zM9.878,9.919 C9.033,10.763 8.018,11.185 6.830,11.185 C5.643,11.185 4.627,10.763 3.783,9.919 C2.938,9.075 2.516,8.059 2.516,6.871 C2.516,5.684 2.939,4.668 3.783,3.824 C4.627,2.980 5.643,2.558 6.830,2.558 C8.018,2.558 9.033,2.980 9.878,3.824 C10.722,4.668 11.144,5.684 11.144,6.871 C11.144,8.059 10.722,9.075 9.878,9.919 z" fill="#BE7A56" />
</svg>
