<svg version="1.1" xmlns="http://www.w3.org/2000/svg" xmlns:xlink="http://www.w3.org/1999/xlink" width="17" height="16" viewBox="0 0 17 16">
<path id="i" d="M14.845,7.738 C14.570,6.127 13.809,4.662 12.649,3.502 C11.426,2.283 9.878,1.509 8.170,1.270 C8.170,1.270 8.343,0.037 8.343,0.037 C10.320,0.313 12.111,1.207 13.526,2.622 C14.869,3.968 15.749,5.662 16.071,7.529 C16.071,7.529 14.845,7.738 14.845,7.738 zM11.303,4.785 C12.111,5.595 12.642,6.615 12.835,7.741 C12.835,7.741 11.609,7.951 11.609,7.951 C11.459,7.080 11.051,6.290 10.426,5.665 C9.765,5.004 8.927,4.589 8.007,4.459 C8.007,4.459 8.180,3.227 8.180,3.227 C9.369,3.393 10.449,3.931 11.303,4.785 zM5.315,8.745 C6.166,9.788 7.126,10.715 8.273,11.436 C8.519,11.588 8.791,11.701 9.047,11.841 C9.177,11.914 9.266,11.891 9.373,11.781 C9.761,11.382 10.157,10.991 10.552,10.599 C11.071,10.084 11.722,10.084 12.244,10.599 C12.878,11.230 13.513,11.861 14.144,12.495 C14.673,13.027 14.669,13.678 14.138,14.216 C13.779,14.578 13.397,14.924 13.058,15.303 C12.563,15.857 11.945,16.037 11.233,15.997 C10.200,15.941 9.250,15.598 8.333,15.153 C6.296,14.163 4.554,12.791 3.096,11.057 C2.016,9.774 1.125,8.376 0.540,6.801 C0.255,6.040 0.052,5.260 0.115,4.433 C0.155,3.924 0.344,3.489 0.720,3.134 C1.125,2.748 1.507,2.346 1.906,1.954 C2.425,1.442 3.076,1.442 3.598,1.951 C3.920,2.266 4.236,2.589 4.554,2.908 C4.864,3.220 5.173,3.526 5.482,3.838 C6.027,4.386 6.027,5.024 5.485,5.569 C5.096,5.961 4.711,6.353 4.315,6.735 C4.212,6.838 4.202,6.921 4.255,7.047 C4.518,7.672 4.893,8.226 5.315,8.745 z" fill="#553013" />
</svg>
