<svg version="1.1" xmlns="http://www.w3.org/2000/svg" xmlns:xlink="http://www.w3.org/1999/xlink" width="21" height="27" viewBox="0 0 21 27">
<path id="Forma-1" d="M18.936,15.437 C18.228,15.193 17.585,15.076 17.006,15.086 C16.428,15.096 15.842,15.195 15.249,15.385 C14.655,15.574 14.160,15.784 13.761,16.013 C13.362,16.243 12.976,16.504 12.602,16.798 C12.228,17.093 11.981,17.297 11.861,17.412 C11.742,17.526 11.652,17.619 11.592,17.688 C12.091,16.332 12.454,14.921 12.684,13.455 C12.684,13.455 12.938,13.500 12.938,13.500 C13.108,13.530 13.339,13.552 13.634,13.567 C13.928,13.582 14.264,13.587 14.643,13.582 C15.022,13.578 15.421,13.530 15.840,13.440 C16.259,13.351 16.680,13.231 17.104,13.081 C17.528,12.932 17.934,12.705 18.323,12.401 C18.712,12.097 19.059,11.740 19.363,11.331 C19.667,10.922 19.916,10.401 20.111,9.768 C20.306,9.135 20.413,8.429 20.432,7.652 C19.754,7.422 19.094,7.302 18.450,7.293 C17.807,7.283 17.249,7.355 16.775,7.510 C16.301,7.664 15.845,7.886 15.406,8.175 C14.968,8.464 14.614,8.741 14.344,9.005 C14.075,9.269 13.823,9.558 13.589,9.872 C13.355,10.187 13.203,10.401 13.133,10.516 C13.063,10.630 13.014,10.723 12.983,10.792 C12.994,10.533 12.998,10.176 12.998,9.723 C12.998,9.269 12.994,9.017 12.983,8.967 C12.983,8.967 13.088,8.743 13.088,8.743 C13.168,8.594 13.253,8.384 13.343,8.115 C13.432,7.846 13.527,7.537 13.627,7.188 C13.727,6.839 13.791,6.457 13.821,6.043 C13.851,5.629 13.854,5.203 13.829,4.764 C13.804,4.325 13.702,3.882 13.522,3.433 C13.343,2.984 13.104,2.560 12.804,2.162 C12.505,1.763 12.084,1.381 11.540,1.017 C10.997,0.653 10.361,0.347 9.633,0.097 C9.124,0.775 8.776,1.466 8.586,2.169 C8.397,2.872 8.337,3.505 8.407,4.069 C8.476,4.632 8.641,5.193 8.900,5.751 C9.159,6.310 9.428,6.774 9.708,7.143 C9.987,7.512 10.304,7.868 10.657,8.212 C11.012,8.556 11.256,8.778 11.390,8.878 C11.525,8.977 11.632,9.057 11.712,9.117 C11.712,9.845 11.652,10.817 11.532,12.034 C11.532,12.034 11.473,11.795 11.473,11.795 C11.422,11.645 11.343,11.448 11.233,11.204 C11.123,10.960 10.986,10.680 10.822,10.366 C10.657,10.052 10.448,9.738 10.194,9.424 C9.940,9.110 9.660,8.806 9.356,8.511 C9.052,8.217 8.686,7.968 8.257,7.763 C7.828,7.559 7.369,7.410 6.880,7.315 C6.392,7.220 5.831,7.215 5.198,7.300 C4.564,7.385 3.899,7.567 3.201,7.846 C3.261,8.544 3.403,9.180 3.627,9.753 C3.851,10.326 4.123,10.797 4.442,11.166 C4.761,11.535 5.135,11.859 5.564,12.139 C5.993,12.418 6.412,12.630 6.821,12.774 C7.229,12.919 7.671,13.034 8.144,13.118 C8.618,13.203 9.024,13.253 9.363,13.268 C9.703,13.283 10.049,13.286 10.403,13.276 C10.757,13.266 10.989,13.253 11.099,13.238 C11.208,13.223 11.298,13.211 11.368,13.201 C11.108,14.796 10.715,16.247 10.186,17.553 C9.937,17.114 9.655,16.706 9.341,16.327 C9.027,15.948 8.586,15.564 8.017,15.175 C7.448,14.786 6.828,14.505 6.155,14.330 C5.481,14.156 4.646,14.118 3.649,14.218 C2.652,14.318 1.585,14.602 0.448,15.071 C0.777,15.898 1.149,16.626 1.563,17.255 C1.976,17.883 2.398,18.382 2.826,18.751 C3.255,19.120 3.714,19.414 4.203,19.633 C4.691,19.853 5.155,19.995 5.594,20.059 C6.033,20.124 6.486,20.137 6.955,20.097 C7.424,20.057 7.837,19.992 8.196,19.902 C8.555,19.812 8.914,19.698 9.273,19.558 C8.256,21.433 7.002,22.901 5.511,23.963 C4.020,25.025 2.412,25.561 0.687,25.571 C0.498,25.571 0.338,25.634 0.209,25.758 C0.079,25.883 0.014,26.040 0.014,26.230 C0.014,26.419 0.079,26.578 0.209,26.708 C0.338,26.837 0.498,26.902 0.687,26.902 C2.761,26.892 4.679,26.232 6.439,24.921 C8.199,23.609 9.642,21.817 10.769,19.543 C10.769,19.543 11.023,19.693 11.023,19.693 C11.183,19.792 11.412,19.904 11.712,20.029 C12.011,20.154 12.357,20.291 12.751,20.440 C13.145,20.590 13.576,20.699 14.045,20.769 C14.513,20.839 14.995,20.882 15.488,20.897 C15.982,20.911 16.488,20.839 17.007,20.679 C17.525,20.520 18.019,20.288 18.487,19.984 C18.956,19.680 19.410,19.238 19.849,18.660 C20.287,18.082 20.666,17.394 20.986,16.596 C20.327,16.068 19.644,15.681 18.936,15.437 z" fill="#FFFFFF" />
</svg>
