<svg version="1.1" xmlns="http://www.w3.org/2000/svg" xmlns:xlink="http://www.w3.org/1999/xlink" width="18" height="26" viewBox="0 0 18 26">
<path id="i" d="M17.262,14.223 C17.262,10.763 15.573,7.761 12.873,6.293 C12.669,4.828 11.417,3.696 9.903,3.696 C9.565,3.696 9.241,3.754 8.937,3.858 C8.937,3.858 8.937,2.514 8.937,2.514 C8.937,2.181 8.687,1.910 8.366,1.875 C8.366,1.875 8.366,1.188 8.366,1.188 C8.366,1.163 8.361,1.140 8.358,1.116 C8.358,1.116 8.878,1.116 8.878,1.116 C9.114,1.116 9.307,0.923 9.307,0.685 C9.307,0.685 9.307,0.398 9.307,0.398 C9.307,0.160 9.114,-0.033 8.878,-0.033 C8.878,-0.033 4.593,-0.033 4.593,-0.033 C4.356,-0.033 4.164,0.160 4.164,0.398 C4.164,0.398 4.164,0.685 4.164,0.685 C4.164,0.923 4.356,1.116 4.593,1.116 C4.593,1.116 5.112,1.116 5.112,1.116 C5.110,1.140 5.105,1.163 5.105,1.188 C5.105,1.188 5.105,1.875 5.105,1.875 C4.784,1.911 4.533,2.181 4.533,2.514 C4.533,2.514 4.533,11.994 4.533,11.994 C4.533,12.345 4.812,12.629 5.159,12.639 C5.159,12.639 5.159,16.603 5.159,16.603 C5.159,16.603 5.181,16.603 5.181,16.603 C5.282,16.726 6.170,16.927 6.698,16.927 C7.226,16.927 8.189,16.726 8.290,16.603 C8.290,16.603 8.311,16.603 8.311,16.603 C8.311,16.603 8.311,12.639 8.311,12.639 C8.658,12.629 8.937,12.345 8.937,11.994 C8.937,11.994 8.937,9.566 8.937,9.566 C9.241,9.670 9.565,9.729 9.903,9.729 C10.980,9.729 11.923,9.155 12.453,8.297 C14.279,9.520 15.331,11.719 15.331,14.223 C15.331,15.775 14.862,17.211 14.071,18.369 C14.071,18.369 11.916,18.860 11.916,18.860 L11.916,18.803 L1.808,18.803 L1.808,20.485 L4.465,21.113 L4.465,23.414 L0.083,23.414 L0.083,26.000 L14.382,26.000 L14.382,23.414 L10.963,23.414 C10.963,23.414 10.963,22.786 10.963,22.786 C14.599,21.843 17.262,18.404 17.262,14.223 zM9.903,9.082 C8.602,9.082 7.544,8.019 7.544,6.712 C7.544,5.406 8.602,4.342 9.903,4.342 C10.933,4.342 11.809,5.011 12.130,5.938 C11.849,5.821 11.562,5.719 11.267,5.635 C10.949,5.229 10.457,4.967 9.902,4.967 C8.943,4.967 8.165,5.749 8.165,6.712 C8.165,7.676 8.943,8.457 9.902,8.457 C10.495,8.457 11.018,8.158 11.332,7.702 C11.526,7.780 11.716,7.869 11.900,7.966 C11.483,8.635 10.745,9.082 9.903,9.082 z" fill="#FFFFFF" />
</svg>
