<svg version="1.1" xmlns="http://www.w3.org/2000/svg" xmlns:xlink="http://www.w3.org/1999/xlink" width="32" height="22" viewBox="0 0 32 22">
<path id="i" d="M31.909,17.257 C31.887,17.679 31.797,18.068 31.492,18.394 C31.098,18.811 30.625,18.980 30.067,18.980 C28.202,18.980 26.337,18.980 24.472,18.980 C23.188,18.980 21.897,18.980 20.613,18.980 C20.382,18.152 19.999,16.981 19.768,16.277 C19.728,16.113 19.672,15.950 19.604,15.798 C19.559,15.691 19.469,15.528 19.198,15.184 C18.928,14.846 18.680,14.615 18.427,14.463 C18.320,14.396 18.201,14.339 18.162,14.322 C18.060,14.277 17.936,14.221 17.790,14.159 C17.976,13.956 18.190,13.776 18.432,13.613 C18.545,13.534 18.663,13.466 18.787,13.404 C18.945,13.320 21.368,12.526 21.430,12.503 C21.413,12.588 21.407,12.678 21.401,12.779 C21.063,13.016 20.072,13.866 20.523,15.466 C20.523,15.466 21.238,14.615 21.965,14.508 C22.658,15.719 23.835,17.245 24.472,17.645 C25.109,17.245 26.286,15.713 26.979,14.508 C27.706,14.615 28.422,15.466 28.422,15.466 C28.872,13.872 27.881,13.016 27.543,12.779 C27.537,12.678 27.532,12.588 27.515,12.503 C27.577,12.526 29.999,13.320 30.157,13.404 C30.275,13.466 30.394,13.534 30.512,13.613 C31.132,14.035 31.588,14.570 31.757,15.308 C31.774,15.376 31.847,15.792 31.847,15.792 C31.864,15.922 31.881,16.051 31.892,16.181 C31.892,16.186 31.921,16.862 31.921,16.862 C31.921,16.862 31.915,17.183 31.909,17.257 zM28.872,8.577 C28.810,8.786 28.777,8.983 28.777,9.169 C28.777,9.231 28.782,9.293 28.794,9.355 C28.844,9.529 29.216,10.126 29.278,10.228 C28.625,10.937 27.751,11.101 26.895,11.281 C26.641,11.332 26.382,11.365 26.106,11.399 C26.016,11.416 25.926,11.433 25.836,11.450 C25.836,11.450 26.269,12.723 26.269,12.723 C26.269,12.723 26.281,14.581 24.483,15.713 C24.483,15.713 24.472,15.713 24.472,15.713 C22.675,14.581 22.686,12.723 22.686,12.723 C22.686,12.723 23.120,11.450 23.120,11.450 C23.030,11.433 22.940,11.416 22.849,11.399 C22.573,11.365 22.314,11.332 22.061,11.281 C21.204,11.101 20.337,10.937 19.677,10.228 C19.739,10.126 20.111,9.529 20.162,9.355 C20.173,9.293 20.179,9.231 20.179,9.169 C20.179,8.983 20.139,8.786 20.083,8.577 C20.027,8.380 19.965,8.183 19.914,7.981 C19.627,7.333 19.463,6.612 19.463,5.857 C19.463,3.047 21.700,0.760 24.478,0.709 C24.478,0.709 24.483,0.709 24.483,0.709 C24.483,0.709 24.489,0.709 24.489,0.709 C27.267,0.760 29.503,3.047 29.503,5.857 C29.503,6.618 29.346,7.333 29.053,7.981 C28.991,8.183 28.929,8.380 28.872,8.577 zM18.505,16.626 C18.731,17.296 19.221,18.800 19.435,19.622 C19.463,19.707 19.486,19.797 19.497,19.887 C19.508,19.966 19.514,20.050 19.542,20.118 C19.542,21.002 18.827,21.717 17.942,21.717 C17.942,21.717 16.415,21.717 16.415,21.717 C14.229,21.717 12.049,21.717 9.863,21.717 C9.834,21.717 9.806,21.717 9.778,21.717 C9.750,21.717 9.722,21.717 9.694,21.717 C7.507,21.717 5.327,21.717 3.141,21.717 C3.141,21.717 1.614,21.717 1.614,21.717 C0.730,21.717 0.014,21.002 0.014,20.118 C0.014,20.039 0.020,19.954 0.031,19.876 C0.042,19.785 0.065,19.695 0.093,19.611 C0.313,18.783 0.803,17.285 1.022,16.615 C1.045,16.496 1.135,16.277 1.135,16.277 C1.270,15.989 1.766,15.578 1.766,15.578 C1.783,15.567 1.901,15.511 1.918,15.499 C1.918,15.499 4.110,14.581 4.110,14.581 C4.938,14.227 5.795,13.917 6.668,13.607 C6.826,14.260 8.308,18.575 8.544,19.171 C8.544,19.171 8.730,15.161 8.730,15.161 C8.668,15.071 8.623,14.959 8.572,14.857 C8.572,14.857 7.969,13.663 7.969,13.663 C8.403,14.013 9.040,14.232 9.756,14.232 C10.488,14.232 11.142,14.001 11.575,13.641 C11.575,13.641 10.956,14.863 10.956,14.863 C10.905,14.964 10.860,15.071 10.798,15.167 C10.798,15.167 10.984,19.177 10.984,19.177 C11.220,18.575 12.702,14.260 12.860,13.613 C13.733,13.922 14.590,14.227 15.418,14.587 C15.418,14.587 17.074,15.252 17.610,15.505 C17.627,15.511 17.762,15.584 17.762,15.584 C18.032,15.747 18.393,16.288 18.393,16.288 C18.444,16.395 18.483,16.508 18.505,16.626 zM13.728,8.989 C13.283,10.414 12.595,11.320 11.919,11.895 C10.877,12.785 9.868,12.881 9.851,12.881 C9.823,12.881 9.795,12.881 9.767,12.881 C9.739,12.881 9.710,12.881 9.682,12.881 C9.660,12.881 8.646,12.779 7.598,11.884 C6.927,11.309 6.240,10.408 5.800,8.989 C5.778,8.989 4.876,9.439 4.668,7.091 C4.566,5.981 5.490,6.206 5.592,6.201 C5.592,5.919 5.535,4.900 5.535,4.663 C5.535,2.382 7.389,0.529 9.671,0.529 C9.671,0.529 9.677,0.529 9.677,0.529 C9.677,0.529 9.682,0.529 9.682,0.529 C9.710,0.529 9.733,0.529 9.761,0.529 C9.789,0.529 9.812,0.529 9.840,0.529 C9.840,0.529 9.846,0.529 9.846,0.529 C9.846,0.529 9.851,0.529 9.851,0.529 C12.133,0.529 13.987,2.382 13.987,4.663 C13.987,4.894 13.930,5.919 13.930,6.201 C14.032,6.206 14.956,5.981 14.860,7.091 C14.652,9.445 13.756,8.989 13.728,8.989 z" fill="#FFFFFF" />
</svg>
