<svg version="1.1" xmlns="http://www.w3.org/2000/svg" xmlns:xlink="http://www.w3.org/1999/xlink" width="40" height="55" viewBox="0 0 40 55">
<path id="point" d="M33.501,5.645 C29.894,2.007 25.099,0.004 20.000,0.004 C14.899,0.004 10.105,2.007 6.498,5.645 C-0.175,12.375 -1.005,25.039 4.702,32.712 C4.702,32.712 20.000,54.995 20.000,54.995 C20.000,54.995 35.274,32.743 35.274,32.743 C41.004,25.039 40.174,12.375 33.501,5.645 zM20.176,26.115 C16.334,26.115 13.206,22.960 13.206,19.085 C13.206,15.210 16.334,12.055 20.176,12.055 C24.018,12.055 27.145,15.210 27.145,19.085 C27.145,22.960 24.018,26.115 20.176,26.115 z" fill="#BE7A56" />
</svg>
