<svg version="1.1" xmlns="http://www.w3.org/2000/svg" xmlns:xlink="http://www.w3.org/1999/xlink" width="14" height="9" viewBox="0 0 14 9">
<path id="v" d="M6.323,8.070 C6.323,8.070 0.587,2.366 0.587,2.366 C0.222,2.003 0.222,1.415 0.587,1.052 C0.951,0.690 1.543,0.690 1.908,1.052 C1.908,1.052 6.983,6.099 6.983,6.099 C6.983,6.099 12.059,1.053 12.059,1.053 C12.424,0.690 13.015,0.690 13.380,1.053 C13.745,1.415 13.745,2.003 13.380,2.366 C13.380,2.366 7.644,8.070 7.644,8.070 C7.461,8.252 7.222,8.342 6.983,8.342 C6.744,8.342 6.505,8.251 6.323,8.070 z" fill="#585858" />
</svg>
